<?xml version="1.0" encoding="UTF-8" standalone="no"?>
<!-- Created with Inkscape (http://www.inkscape.org/) -->

<svg
   version="1.1"
   id="svg25"
   xml:space="preserve"
   width="1118.8053"
   height="1276.5156"
   viewBox="0 0 1118.8053 1276.5156"
   sodipodi:docname="transparent.svg"
   inkscape:version="1.1.2 (0a00cf5339, 2022-02-04)"
   xmlns:inkscape="http://www.inkscape.org/namespaces/inkscape"
   xmlns:sodipodi="http://sodipodi.sourceforge.net/DTD/sodipodi-0.dtd"
   xmlns:xlink="http://www.w3.org/1999/xlink"
   xmlns="http://www.w3.org/2000/svg"
   xmlns:svg="http://www.w3.org/2000/svg"><defs
     id="defs29"><linearGradient
       inkscape:collect="always"
       id="linearGradient75920"><stop
         style="stop-color:#f05437;stop-opacity:1"
         offset="0"
         id="stop75916" /><stop
         style="stop-color:#dd2177;stop-opacity:1"
         offset="1"
         id="stop75918" /></linearGradient><linearGradient
       x1="0"
       y1="0"
       x2="1"
       y2="0"
       gradientUnits="userSpaceOnUse"
       gradientTransform="matrix(65.28727,0,0,65.28727,1240.5842,858.87958)"
       spreadMethod="pad"
       id="linearGradient55"><stop
         style="stop-opacity:1;stop-color:#ff512f"
         offset="0"
         id="stop47" /><stop
         style="stop-opacity:1;stop-color:#ff512f"
         offset="0.00537634"
         id="stop49" /><stop
         style="stop-opacity:1;stop-color:#ff512f"
         offset="0.01022623"
         id="stop51" /><stop
         style="stop-opacity:1;stop-color:#dd2476"
         offset="1"
         id="stop53" /></linearGradient><linearGradient
       x1="0"
       y1="0"
       x2="1"
       y2="0"
       gradientUnits="userSpaceOnUse"
       gradientTransform="matrix(839.10345,0,0,839.10345,580.4483,1000)"
       spreadMethod="pad"
       id="linearGradient79"><stop
         style="stop-opacity:1;stop-color:#ff512f"
         offset="0"
         id="stop71" /><stop
         style="stop-opacity:1;stop-color:#ff512f"
         offset="0.00537634"
         id="stop73" /><stop
         style="stop-opacity:1;stop-color:#ff512f"
         offset="0.01022623"
         id="stop75" /><stop
         style="stop-opacity:1;stop-color:#dd2476"
         offset="1"
         id="stop77" /></linearGradient><linearGradient
       inkscape:collect="always"
       xlink:href="#linearGradient75920"
       id="linearGradient75922"
       x1="1000.019"
       y1="1478.693"
       x2="1011.332"
       y2="524.34003"
       gradientUnits="userSpaceOnUse" /></defs><sodipodi:namedview
     id="namedview27"
     pagecolor="#ffffff"
     bordercolor="#666666"
     borderopacity="1.0"
     inkscape:pageshadow="2"
     inkscape:pageopacity="0.0"
     inkscape:pagecheckerboard="0"
     showgrid="false"
     fit-margin-top="0"
     fit-margin-left="0"
     fit-margin-right="0"
     fit-margin-bottom="0"
     inkscape:zoom="0.1851855"
     inkscape:cx="658.79889"
     inkscape:cy="566.99904"
     inkscape:window-width="1366"
     inkscape:window-height="695"
     inkscape:window-x="0"
     inkscape:window-y="0"
     inkscape:window-maximized="1"
     inkscape:current-layer="g31" /><g
     id="g31"
     inkscape:groupmode="layer"
     inkscape:label="LOGO"
     transform="matrix(1.3333333,0,0,-1.3333333,-773.93065,1971.5906)"><g
       id="g35"><g
         id="g37"><g
           id="g43"><g
             id="g45"><path
               d="m 1271.917,882.068 -31.333,-18.081 v -0.249 l 31.333,18.096 2.759,1.601 c -0.924,-0.387 -1.848,-0.842 -2.759,-1.367 m 33.513,-47.744 c 0.29,1.463 0.441,2.954 0.441,4.472 v 0 23.672 c 0,1.56 -0.151,3.078 -0.441,4.527 v 0 z"
               style="fill:url(#linearGradient55);stroke:none"
               id="path57" /></g></g></g></g><g
       id="g59"
       style="fill:url(#linearGradient75922);fill-opacity:1"><g
         id="g61"
         style="fill:url(#linearGradient75922);fill-opacity:1.0"><g
           id="g67"
           style="fill:url(#linearGradient75922);fill-opacity:1.0"><g
             id="g69"
             style="fill:url(#linearGradient75922);fill-opacity:1.0"><path
               d="M 988.695,1475.66 591.767,1246.505 c -7.012,-4.043 -11.319,-11.525 -11.319,-19.614 v 0 -453.782 c 0,-8.088 4.307,-15.57 11.319,-19.614 v 0 L 805.448,630.139 c 6.999,-4.031 15.626,-4.031 22.638,0 v 0 l 68.42,39.517 c 15.087,8.71 15.087,30.491 0,39.2 v 0 L 705.447,819.141 c -6.998,4.044 -11.318,11.525 -11.318,19.601 v 0 230.742 c 0,17.419 18.855,28.309 33.955,19.6 v 0 L 988.709,938.633 c 6.999,-4.045 15.625,-4.045 22.623,0 v 0 l 196.388,113.376 32.864,18.979 31.333,18.081 c 13.747,7.937 30.6,-0.371 33.513,-15.072 v 0 c 0.29,-1.449 0.441,-2.967 0.441,-4.527 v 0 -23.672 c 0,-1.518 -0.151,-3.009 -0.441,-4.472 v 0 c -1.271,-6.281 -5.162,-11.802 -10.821,-15.1 v 0 l -54.025,-31.195 -34.08,-19.683 -195.172,-112.7 c -6.998,-4.044 -15.624,-4.044 -22.637,0 v 0 L 794.089,975.017 c -15.087,8.709 -33.942,-2.181 -33.942,-19.6 v 0 -79.021 c 0,-8.075 4.307,-15.556 11.305,-19.601 v 0 L 988.709,731.396 c 6.999,-4.044 15.625,-4.044 22.623,0 v 0 l 196.388,113.377 27.978,16.15 4.886,2.815 v 0.249 l 31.333,18.081 c 0.911,0.525 1.835,0.98 2.759,1.367 v 0 h 0.015 c 13.154,5.438 28.019,-2.719 30.739,-16.44 v 0 c 0.29,-1.449 0.441,-2.967 0.441,-4.527 v 0 -23.672 c 0,-1.518 -0.151,-3.009 -0.441,-4.472 v 0 c -1.271,-6.28 -5.162,-11.801 -10.821,-15.101 v 0 L 1240.584,788.03 920.054,603.195 c -15.1,-8.709 -15.1,-30.49 -0.015,-39.214 v 0 l 68.656,-39.641 c 7.013,-4.045 15.639,-4.045 22.637,0 v 0 l 396.915,229.155 c 6.998,4.044 11.305,11.526 11.305,19.6 v 0 453.796 c 0,8.089 -4.307,15.571 -11.305,19.614 v 0 l -396.915,229.155 c -3.499,2.022 -7.405,3.033 -11.313,3.033 v 0 c -3.908,0 -7.818,-1.011 -11.324,-3.033 m 0,-405.776 -203.771,117.655 c -15.087,8.71 -15.087,30.49 0,39.201 v 0 l 203.771,117.669 c 7.013,4.045 15.639,4.03 22.637,0 v 0 L 1215.09,1226.74 c 15.087,-8.711 15.087,-30.491 0,-39.201 v 0 l -203.758,-117.655 c -3.499,-2.022 -7.405,-3.034 -11.313,-3.034 v 0 c -3.908,0 -7.818,1.012 -11.324,3.034"
               style="fill:url(#linearGradient75922);stroke:none;fill-opacity:1.0"
               id="path81" /></g></g></g></g></g></svg>
